<svg id="Layer_2" data-name="Layer 2" xmlns="http://www.w3.org/2000/svg" width="937.55" height="362.02" viewBox="0 0 937.55 362.02">
  <g id="Layer_1" data-name="Layer 1">
    <rect id="Rectangle_1" data-name="Rectangle 1" width="168.65" height="27.76" transform="translate(0 190.57)" fill="#ea2127"/>
    <rect id="Rectangle_2" data-name="Rectangle 2" width="168.65" height="27.76" transform="translate(0 238.46)" fill="#ea2127"/>
    <rect id="Rectangle_3" data-name="Rectangle 3" width="168.65" height="27.76" transform="translate(0 286.36)" fill="#ea2127"/>
    <rect id="Rectangle_4" data-name="Rectangle 4" width="168.65" height="27.76" transform="translate(0 334.26)" fill="#ea2127"/>
    <path id="Path_1" data-name="Path 1" d="M937.55,362H191.94V0H937.55ZM256.8,213.71h7.7V197.39h20.05v16.32h7.7V173.48h-7.7v17.18H264.5V173.48h-7.7ZM327.37,173a22.21,22.21,0,0,0-10.89,2.71,20.431,20.431,0,0,0,0,35.79,22.86,22.86,0,0,0,21.78,0,20.422,20.422,0,0,0,.01-35.86A22.27,22.27,0,0,0,327.37,173Zm.11,6.9a13.06,13.06,0,0,1,6.72,1.81,13.54,13.54,0,0,1,6.73,11.87,13.7,13.7,0,0,1-1.81,7,13.49,13.49,0,0,1-4.92,5,12.89,12.89,0,0,1-6.72,1.84,13.19,13.19,0,0,1-6.81-1.84,13.851,13.851,0,0,1-5-5,13.67,13.67,0,0,1,11.81-20.63Zm35,33.85h7V184.86l12.59,24.71H387l12.53-24.71v28.85h7.07V173.48h-8.8L384.6,199.4l-13.33-25.92h-8.79Zm60.91,0h30.17V207H431.09V196.87h19.54v-6.72H431.09v-9.94h21.78v-6.73H423.39ZM256.8,295.65h7V266.8l12.58,24.71h4.95l12.52-24.71v28.85h7.07V255.42h-8.79l-13.22,25.92-13.33-25.92H256.8ZM336,254.9a22.19,22.19,0,0,0-10.88,2.7,20.484,20.484,0,0,0-.02,35.89,22.84,22.84,0,0,0,21.77,0A20.38,20.38,0,0,0,354.6,286a20.581,20.581,0,0,0-7.73-28.37A22.2,22.2,0,0,0,336,254.9Zm.12,6.9a13.06,13.06,0,0,1,6.72,1.81,13.4,13.4,0,0,1,4.92,4.94,13.68,13.68,0,0,1,1.81,6.93,13.83,13.83,0,0,1-1.81,6.95,13.56,13.56,0,0,1-4.92,5,12.89,12.89,0,0,1-6.72,1.84,13.19,13.19,0,0,1-6.81-1.84,13.85,13.85,0,0,1-5-5A13.67,13.67,0,0,1,336.1,261.8Zm69,33.85-8.85-13.34a12.42,12.42,0,0,0,6-5,15.1,15.1,0,0,0,2-8c0-4.4-1.42-7.82-4.25-10.23s-6.86-3.62-12.07-3.62H371.1v40.23h7.7V283.81h9.08a12.088,12.088,0,0,0,1.43-.06l7,11.9ZM378.8,262.14h9.08c2.91,0,5.13.62,6.67,1.84a6.66,6.66,0,0,1,2.29,5.52,6.87,6.87,0,0,1-2.29,5.63q-2.31,1.9-6.67,1.9H378.8Zm36.26.12h12.53v33.39h7.76V262.26h12.52v-6.84H415.06Zm70.17,24.48a18.911,18.911,0,0,1-4.34,1.87,15.519,15.519,0,0,1-4.34.66,13.67,13.67,0,0,1-7-1.84,13.86,13.86,0,0,1-5-5,13.66,13.66,0,0,1,5-18.82,13.89,13.89,0,0,1,7-1.81,16.14,16.14,0,0,1,6.07,1.21,16.391,16.391,0,0,1,5.31,3.39l4.37-5.69a22.68,22.68,0,0,0-7.24-4.26,24.46,24.46,0,0,0-8.51-1.55,22.46,22.46,0,0,0-11,2.73,20.65,20.65,0,0,0-7.84,7.42,19.49,19.49,0,0,0-2.88,10.43A20.17,20.17,0,0,0,457.59,286a20.5,20.5,0,0,0,7.67,7.49A21.44,21.44,0,0,0,476,296.22a26.26,26.26,0,0,0,8.44-1.46,26.781,26.781,0,0,0,7.47-3.82V275.65h-6.72Zm60.57,8.91-17.41-40.23h-8l-17.64,40.23h8l3.56-8.51H534l3.57,8.51Zm-21.61-32L534,287.14h-7.152l-2.786-6.6H517.07Zm59.65,23.1a18.84,18.84,0,0,1-4.33,1.87,15.579,15.579,0,0,1-4.34.66,13.62,13.62,0,0,1-7-1.84,13.721,13.721,0,0,1,7-25.63,16.09,16.09,0,0,1,6.06,1.21,16.44,16.44,0,0,1,5.32,3.39l4.37-5.69a22.9,22.9,0,0,0-7.24-4.26,24.5,24.5,0,0,0-8.51-1.55,22.52,22.52,0,0,0-11,2.73,20.719,20.719,0,0,0-7.84,7.42,19.48,19.48,0,0,0-2.87,10.43A20.16,20.16,0,0,0,556.2,286a20.6,20.6,0,0,0,7.68,7.49,21.37,21.37,0,0,0,10.77,2.76,26.359,26.359,0,0,0,8.45-1.46,27.06,27.06,0,0,0,7.47-3.82V275.65h-6.73Zm22.53,8.91h30.17v-6.73H614.07V278.81h19.54v-6.72H614.07v-9.95h21.78v-6.72H606.37ZM312.9,130.72l-14.62-22a20.52,20.52,0,0,0,9.82-8.26,25,25,0,0,0,3.38-13.29q0-10.9-7-16.89t-19.94-6H256.8v66.45h12.72V111.16h15a22.481,22.481,0,0,0,2.38-.09l11.49,19.65ZM269.52,75.37h15q7.22,0,11,3t3.79,9.11q0,6.18-3.79,9.31t-11,3.13h-15Zm67.3,55.35h49.84V119.61H349.54V102.9h32.27V91.8H349.54V75.37h36V64.27h-48.7Zm120.46-20.6L423,64.27H411v66.45h12.43V85l34.18,45.76h12.05V64.27H457.28Zm40.06,20.6h49.84V119.61H510.06V102.9h32.28V91.8H510.06V75.37h36V64.27h-48.7ZM616.57,116a32,32,0,0,1-7.17,3.09,25.93,25.93,0,0,1-7.17,1.09,22.7,22.7,0,0,1-11.62-42.39,23,23,0,0,1,11.53-3,26.749,26.749,0,0,1,10,2,27.361,27.361,0,0,1,8.79,5.6l7.21-9.4a37.209,37.209,0,0,0-12-7,40.411,40.411,0,0,0-14.05-2.56A37.18,37.18,0,0,0,584,67.92a34.32,34.32,0,0,0-13,12.25,32.329,32.329,0,0,0-4.74,17.23,33.28,33.28,0,0,0,4.65,17.32,34,34,0,0,0,12.67,12.39,35.39,35.39,0,0,0,17.8,4.56,43,43,0,0,0,14-2.43,44.08,44.08,0,0,0,12.34-6.31V97.68h-11.1ZM703,130.72h13.67L687.86,64.27h-13.2l-29.14,66.45h13.2l5.821-13.858H685.3L680.7,105.9H669.146L680.93,77.84,685.9,89.753Zm60.76-66.45H736.08v66.45h27.15a37.75,37.75,0,0,0,18.13-4.28,31.45,31.45,0,0,0,12.48-11.82,32.71,32.71,0,0,0,4.51-17.13,33.309,33.309,0,0,0-4.46-17.18,31.06,31.06,0,0,0-12.34-11.82,37.22,37.22,0,0,0-17.84-4.22Zm.28,55.24H748.8v-44h14.71a22.34,22.34,0,0,1,11.16,2.8,20.18,20.18,0,0,1,7.83,7.88,24.57,24.57,0,0,1,.1,22.78,19.87,19.87,0,0,1-7.65,7.78A21.62,21.62,0,0,1,764,119.51Zm56.86,11.21h49.84V119.61H833.57V102.9h32.28V91.8H833.57V75.37h36V64.27h-48.7Z" fill="#fff"/>
    <path id="Path_2" data-name="Path 2" d="M0,0H168.65V168.65H0ZM82.6,32.76l-10.72,33A2,2,0,0,1,70,67.17H35.24a2,2,0,0,0-1.18,3.65L62.14,91.23a2,2,0,0,1,.73,2.26l-10.72,33a2,2,0,0,0,3.1,2.25l28.09-20.4a2,2,0,0,1,2.37,0l28.08,20.4a2,2,0,0,0,3.11-2.25l-10.73-33a2,2,0,0,1,.74-2.26L135,70.82a2,2,0,0,0-1.19-3.65H99.09a2,2,0,0,1-1.92-1.4l-10.73-33a2,2,0,0,0-3.84-.01Z" fill="#7fd1ed"/>
  </g>
</svg>
